<?xml version="1.0" encoding="utf-8"?>
<!-- Generator: Adobe Illustrator 27.2.0, SVG Export Plug-In . SVG Version: 6.00 Build 0)  -->
<svg version="1.1" id="Laag_1" xmlns="http://www.w3.org/2000/svg" xmlns:xlink="http://www.w3.org/1999/xlink" x="0px" y="0px"
	 viewBox="0 0 267.7 392.4" style="enable-background:new 0 0 267.7 392.4;" xml:space="preserve">
<style type="text/css">
	.st0{fill:#00609B;}
</style>
<g>
	<path class="st0" d="M233.9,13.3h-51.6V0h-97v13.3H33.8C15.1,13.3,0,28.4,0,47.1l0,0c0,5.1,4.1,9.2,9.2,9.2h249.2
		c5.1,0,9.2-4.1,9.2-9.2l0,0C267.7,28.4,252.6,13.3,233.9,13.3z"/>
	<path class="st0" d="M0,73l24.7,319.4h218.2L267.7,73H0z M195.8,282.9L195.8,282.9c-5,5-13.1,5-18.1,0l-43.9-43.9L90,282.9
		c-5,5-13.1,5-18.1,0l0,0c-5-5-5-13.1,0-18.1l43.9-43.9l-43.9-43.9c-5-5-5-13.1,0-18.1v0c5-5,13.1-5,18.1,0l43.9,43.9l43.9-43.9
		c5-5,13.1-5,18.1,0l0,0c5,5,5,13.1,0,18.1l-43.9,43.9l43.9,43.9C200.8,269.8,200.8,277.9,195.8,282.9z"/>
</g>
</svg>
